<svg xmlns="http://www.w3.org/2000/svg" viewBox="0 0 200 200"><rect width="200" height="200" fill="#f4f6fa"/><circle cx="100" cy="100" r="84" fill="#eef2f7"/><circle cx="100" cy="100" r="84" fill="none" stroke="#e1e7ef" stroke-width="2"/><g transform="translate(100 100) scale(1.16) translate(-100 -100)"><g transform="rotate(47 94.1 134.7)"><rect x="79.0" y="131.1" width="30.2" height="7.2" rx="2.6" fill="#d99a2b"/><rect x="80.0" y="131.7" width="28.2" height="5" rx="2.2" fill="#f4c752"/></g><g transform="rotate(164 76.1 72.1)"><rect x="59.9" y="68.5" width="32.4" height="7.2" rx="2.6" fill="#d99a2b"/><rect x="60.9" y="69.1" width="30.4" height="5" rx="2.2" fill="#f4c752"/></g><g transform="rotate(54 94.4 84.9)"><rect x="80.3" y="81.3" width="28.4" height="7.2" rx="2.6" fill="#d99a2b"/><rect x="81.3" y="81.9" width="26.4" height="5" rx="2.2" fill="#f4c752"/></g><g transform="rotate(175 95.7 92.7)"><rect x="84.0" y="89.1" width="23.5" height="7.2" rx="2.6" fill="#d99a2b"/><rect x="85.0" y="89.7" width="21.5" height="5" rx="2.2" fill="#f4c752"/></g><g transform="rotate(37 92.1 96.8)"><rect x="79.4" y="93.2" width="25.3" height="7.2" rx="2.6" fill="#d99a2b"/><rect x="80.4" y="93.8" width="23.3" height="5" rx="2.2" fill="#f4c752"/></g><g transform="rotate(67 128.2 119.0)"><rect x="111.9" y="115.4" width="32.7" height="7.2" rx="2.6" fill="#d99a2b"/><rect x="112.9" y="116.0" width="30.7" height="5" rx="2.2" fill="#f4c752"/></g><g transform="rotate(65 112.6 67.8)"><rect x="96.0" y="64.2" width="33.4" height="7.2" rx="2.6" fill="#d99a2b"/><rect x="97.0" y="64.8" width="31.4" height="5" rx="2.2" fill="#f4c752"/></g><g transform="rotate(140 83.5 116.0)"><rect x="67.1" y="112.4" width="32.8" height="7.2" rx="2.6" fill="#d99a2b"/><rect x="68.1" y="113.0" width="30.8" height="5" rx="2.2" fill="#f4c752"/></g><g transform="rotate(110 70.7 89.2)"><rect x="57.5" y="85.6" width="26.4" height="7.2" rx="2.6" fill="#d99a2b"/><rect x="58.5" y="86.2" width="24.4" height="5" rx="2.2" fill="#f4c752"/></g><g transform="rotate(152 74.1 74.0)"><rect x="61.0" y="70.4" width="26.2" height="7.2" rx="2.6" fill="#d99a2b"/><rect x="62.0" y="71.0" width="24.2" height="5" rx="2.2" fill="#f4c752"/></g><g transform="rotate(141 108.3 60.2)"><rect x="93.2" y="56.6" width="30.3" height="7.2" rx="2.6" fill="#d99a2b"/><rect x="94.2" y="57.2" width="28.3" height="5" rx="2.2" fill="#f4c752"/></g><g transform="rotate(113 64.0 73.2)"><rect x="50.4" y="69.6" width="27.3" height="7.2" rx="2.6" fill="#d99a2b"/><rect x="51.4" y="70.2" width="25.3" height="5" rx="2.2" fill="#f4c752"/></g><g transform="rotate(91 73.8 94.9)"><rect x="61.7" y="91.3" width="24.2" height="7.2" rx="2.6" fill="#d99a2b"/><rect x="62.7" y="91.9" width="22.2" height="5" rx="2.2" fill="#f4c752"/></g><g transform="rotate(101 95.4 128.5)"><rect x="80.8" y="124.9" width="29.3" height="7.2" rx="2.6" fill="#d99a2b"/><rect x="81.8" y="125.5" width="27.3" height="5" rx="2.2" fill="#f4c752"/></g><g transform="rotate(144 120.4 79.5)"><rect x="106.1" y="75.9" width="28.6" height="7.2" rx="2.6" fill="#d99a2b"/><rect x="107.1" y="76.5" width="26.6" height="5" rx="2.2" fill="#f4c752"/></g><g transform="rotate(18 97.7 118.4)"><rect x="84.5" y="114.8" width="26.4" height="7.2" rx="2.6" fill="#d99a2b"/><rect x="85.5" y="115.4" width="24.4" height="5" rx="2.2" fill="#f4c752"/></g><g transform="rotate(0 65.8 114.2)"><rect x="52.1" y="110.6" width="27.6" height="7.2" rx="2.6" fill="#d99a2b"/><rect x="53.1" y="111.2" width="25.6" height="5" rx="2.2" fill="#f4c752"/></g><g transform="rotate(36 88.0 60.2)"><rect x="76.8" y="56.6" width="22.5" height="7.2" rx="2.6" fill="#d99a2b"/><rect x="77.8" y="57.2" width="20.5" height="5" rx="2.2" fill="#f4c752"/></g><g transform="rotate(64 60.9 100.5)"><rect x="47.2" y="96.9" width="27.3" height="7.2" rx="2.6" fill="#d99a2b"/><rect x="48.2" y="97.5" width="25.3" height="5" rx="2.2" fill="#f4c752"/></g><g transform="rotate(89 110.5 122.8)"><rect x="94.3" y="119.2" width="32.4" height="7.2" rx="2.6" fill="#d99a2b"/><rect x="95.3" y="119.8" width="30.4" height="5" rx="2.2" fill="#f4c752"/></g><g transform="rotate(168 107.3 137.1)"><rect x="94.1" y="133.5" width="26.5" height="7.2" rx="2.6" fill="#d99a2b"/><rect x="95.1" y="134.1" width="24.5" height="5" rx="2.2" fill="#f4c752"/></g><g transform="rotate(127 123.0 131.4)"><rect x="108.4" y="127.8" width="29.2" height="7.2" rx="2.6" fill="#d99a2b"/><rect x="109.4" y="128.4" width="27.2" height="5" rx="2.2" fill="#f4c752"/></g><g transform="rotate(151 103.9 132.0)"><rect x="89.4" y="128.4" width="29.0" height="7.2" rx="2.6" fill="#d99a2b"/><rect x="90.4" y="129.0" width="27.0" height="5" rx="2.2" fill="#f4c752"/></g><g transform="rotate(46 127.1 107.7)"><rect x="112.7" y="104.1" width="28.8" height="7.2" rx="2.6" fill="#d99a2b"/><rect x="113.7" y="104.7" width="26.8" height="5" rx="2.2" fill="#f4c752"/></g><g transform="rotate(28 91.2 116.4)"><rect x="76.1" y="112.8" width="30.2" height="7.2" rx="2.6" fill="#d99a2b"/><rect x="77.1" y="113.4" width="28.2" height="5" rx="2.2" fill="#f4c752"/></g><g transform="rotate(152 109.9 89.9)"><rect x="96.3" y="86.3" width="27.1" height="7.2" rx="2.6" fill="#d99a2b"/><rect x="97.3" y="86.9" width="25.1" height="5" rx="2.2" fill="#f4c752"/></g><g transform="rotate(112 66.9 89.4)"><rect x="55.7" y="85.8" width="22.5" height="7.2" rx="2.6" fill="#d99a2b"/><rect x="56.7" y="86.4" width="20.5" height="5" rx="2.2" fill="#f4c752"/></g><g transform="rotate(32 111.3 69.9)"><rect x="97.1" y="66.3" width="28.3" height="7.2" rx="2.6" fill="#d99a2b"/><rect x="98.1" y="66.9" width="26.3" height="5" rx="2.2" fill="#f4c752"/></g><g transform="rotate(68 110.6 99.8)"><rect x="97.8" y="96.2" width="25.6" height="7.2" rx="2.6" fill="#d99a2b"/><rect x="98.8" y="96.8" width="23.6" height="5" rx="2.2" fill="#f4c752"/></g><g transform="rotate(133 63.8 86.1)"><rect x="47.1" y="82.5" width="33.3" height="7.2" rx="2.6" fill="#d99a2b"/><rect x="48.1" y="83.1" width="31.3" height="5" rx="2.2" fill="#f4c752"/></g><g transform="rotate(85 70.4 128.5)"><rect x="59.3" y="124.9" width="22.1" height="7.2" rx="2.6" fill="#d99a2b"/><rect x="60.3" y="125.5" width="20.1" height="5" rx="2.2" fill="#f4c752"/></g><g transform="rotate(121 113.7 126.0)"><rect x="99.5" y="122.4" width="28.4" height="7.2" rx="2.6" fill="#d99a2b"/><rect x="100.5" y="123.0" width="26.4" height="5" rx="2.2" fill="#f4c752"/></g><g transform="rotate(96 99.2 118.8)"><rect x="83.4" y="115.2" width="31.6" height="7.2" rx="2.6" fill="#d99a2b"/><rect x="84.4" y="115.8" width="29.6" height="5" rx="2.2" fill="#f4c752"/></g><g transform="rotate(66 55.9 99.7)"><rect x="40.5" y="96.1" width="30.9" height="7.2" rx="2.6" fill="#d99a2b"/><rect x="41.5" y="96.7" width="28.9" height="5" rx="2.2" fill="#f4c752"/></g><g transform="rotate(108 62.0 117.3)"><rect x="49.7" y="113.7" width="24.6" height="7.2" rx="2.6" fill="#d99a2b"/><rect x="50.7" y="114.3" width="22.6" height="5" rx="2.2" fill="#f4c752"/></g><g transform="rotate(73 74.7 86.9)"><rect x="62.2" y="83.3" width="24.9" height="7.2" rx="2.6" fill="#d99a2b"/><rect x="63.2" y="83.9" width="22.9" height="5" rx="2.2" fill="#f4c752"/></g><g transform="rotate(81 65.8 114.8)"><rect x="52.2" y="111.2" width="27.1" height="7.2" rx="2.6" fill="#d99a2b"/><rect x="53.2" y="111.8" width="25.1" height="5" rx="2.2" fill="#f4c752"/></g><g transform="rotate(153 86.1 107.4)"><rect x="70.6" y="103.8" width="31.1" height="7.2" rx="2.6" fill="#d99a2b"/><rect x="71.6" y="104.4" width="29.1" height="5" rx="2.2" fill="#f4c752"/></g><g transform="rotate(115 125.8 83.8)"><rect x="113.0" y="80.2" width="25.7" height="7.2" rx="2.6" fill="#d99a2b"/><rect x="114.0" y="80.8" width="23.7" height="5" rx="2.2" fill="#f4c752"/></g><g transform="rotate(74 65.0 103.8)"><rect x="52.0" y="100.2" width="26.0" height="7.2" rx="2.6" fill="#d99a2b"/><rect x="53.0" y="100.8" width="24.0" height="5" rx="2.2" fill="#f4c752"/></g><circle cx="140" cy="143" r="14" fill="#c9d3e1" opacity=".6"/><circle cx="140" cy="140" r="14" fill="#ffffff" stroke="#1f3f94" stroke-width="3"/><circle cx="140" cy="140" r="8" fill="#f1f4f8"/><circle cx="140" cy="140" r="7" fill="#c83a22"/><ellipse cx="136.5" cy="135.8" rx="4.2" ry="2.1" fill="#ffffff" opacity=".35"/></g></svg>